<svg xmlns="http://www.w3.org/2000/svg" width="16" height="16"><defs><linearGradient id="A" x1="0%" y1="50%" y2="106.671%"><stop offset="0%" stop-color="#000046"/><stop offset="100%" stop-color="#1CB5E0"/></linearGradient></defs><path d="M15 7H3.83L8.7 2.12a1.01 1.01 0 0 0 0-1.42C8.523.513 8.27.408 8.005.408S7.487.513 7.3.7L.7 7.3c-.187.187-.292.44-.292.705s.105.518.292.705l6.6 6.6a1 1 0 0 0 1.41 0c.39-.39.39-1.02 0-1.4L3.83 9H15c.55 0 1-.45 1-1s-.45-1-1-1z" fill="url(#A)" fill-rule="evenodd"/></svg>