<svg xmlns="http://www.w3.org/2000/svg" width="24" height="15"><path d="M21.576.844a2.076 2.076 0 0 0-2.135 3.22l-3.803 4.842a1.738 1.738 0 0 0-.487-.179 2.135 2.135 0 0 0-1.557.27l-2.488-2.055c.054-.138.11-.276.14-.42a2.076 2.076 0 0 0-4.066-.864c-.087.407-.05.815.1 1.17l-3.4 3.604c-.18-.09-.362-.177-.554-.218a2.076 2.076 0 0 0-.864 4.066 2.076 2.076 0 0 0 2.465-1.6 2 2 0 0 0-.185-1.365l3.293-3.5c.22.147.472.25.735.307a2.06 2.06 0 0 0 1.504-.255L12.79 9.95c-.05.115-.104.253-.134.397a2.076 2.076 0 0 0 4.066.864 2.107 2.107 0 0 0-.218-1.446l3.872-4.926c.1.044.186.064.282.085a2.076 2.076 0 0 0 2.464-1.601c.24-1.124-.423-2.24-1.547-2.48zm-18.85 12.24a.866.866 0 0 1-.659-1.015.866.866 0 0 1 1.015-.659.87.87 0 0 1 .66 1.015.866.866 0 0 1-1.016.66zm6.308-6.158a.866.866 0 0 1-.659-1.015.866.866 0 0 1 1.015-.659.87.87 0 0 1 .66 1.015.866.866 0 0 1-1.016.66zm5.507 4.67a.866.866 0 0 1-.66-1.015.866.866 0 0 1 1.016-.66.87.87 0 0 1 .659 1.016.866.866 0 0 1-1.015.659zm6.425-7.883a.866.866 0 0 1-.66-1.015.866.866 0 0 1 1.016-.659.87.87 0 0 1 .659 1.015.866.866 0 0 1-1.015.66z" fill="#14809F" fill-rule="evenodd"/></svg>