<svg xmlns="http://www.w3.org/2000/svg" width="22" height="20"><path d="M14.844 13.156l1.334 1.333a2.314 2.314 0 0 1-2.311 2.178H5.933L3.31 19.31a.794.794 0 0 1-.6.267.868.868 0 0 1-.867-.867v-2.066A2.333 2.333 0 0 1 0 14.378V7.356a2.31 2.31 0 0 1 2.311-2.311h1.4v1.622h-1.4c-.4 0-.71.31-.71.69v7c0 .378.31.71.71.71h1.156v1.822l1.822-1.822h8.6a.716.716 0 0 0 .711-.711v-1.2h.244zm6.6-10.845v7c0 1.112-.8 2.045-1.844 2.267v2.067a.99.99 0 0 1-.267.644c-.177.134-.4.222-.622.222a.877.877 0 0 1-.622-.266l-2.6-2.6H7.556a2.31 2.31 0 0 1-2.312-2.311V2.3A2.31 2.31 0 0 1 7.556.001H19.1a2.3 2.3 0 0 1 2.333 2.31zm-7.5 6.156a.35.35 0 0 0-.356-.356h-.934a.35.35 0 0 0-.355.356v.6a.35.35 0 0 0 .355.356h.934a.35.35 0 0 0 .355-.356v-.6zm1.844-4.11c0-.667-.222-1.2-.667-1.6s-1.067-.6-1.844-.6c-.734 0-1.31.178-1.756.51-.4.31-.6.733-.644 1.29 0 .133.09.244.222.244l1.044.023a.387.387 0 0 0 .378-.267.837.837 0 0 1 .2-.333.812.812 0 0 1 .556-.2c.266 0 .49.088.622.244.155.156.222.378.222.667a1.32 1.32 0 0 1-.2.71c-.133.2-.29.38-.51.512-.422.29-.71.555-.89.8-.133.178-.2.422-.222.755-.022.156.11.267.267.267h1.133a.264.264 0 0 0 .267-.222c.022-.178.044-.31.1-.422.067-.156.223-.31.423-.445a2.7 2.7 0 0 0 .933-.8c.245-.355.356-.733.356-1.133z" fill="#14809F"/></svg>