<svg xmlns="http://www.w3.org/2000/svg" xmlns:xlink="http://www.w3.org/1999/xlink" width="35" height="35"><defs><linearGradient id="A" x1="50%" y1="0%" y2="50%"><stop offset="0%" stop-color="#000046"/><stop offset="100%" stop-color="#1CB5E0"/></linearGradient><circle id="B" cx="17.5" cy="17.5" r="17.5"/><linearGradient id="C" x1="0%" y1="50%" y2="106.671%"><stop offset="0%" stop-color="#000046"/><stop offset="100%" stop-color="#1CB5E0"/></linearGradient></defs><g fill="none"><mask id="D" fill="#fff"><use xlink:href="#B"/></mask><circle cx="17.5" cy="17.5" r="17" stroke="url(#A)"/><path d="M26.25 9h-18a2.233 2.233 0 0 0-2.239 2.25L6 24.75A2.242 2.242 0 0 0 8.25 27h18a2.242 2.242 0 0 0 2.25-2.25v-13.5A2.242 2.242 0 0 0 26.25 9zm-1.125 15.75H9.375a1.128 1.128 0 0 1-1.125-1.125V11.25h18v12.375a1.13 1.13 0 0 1-1.125 1.125zm-11.93-2.25H10.5v-2.25h2.695v2.25zm5.4 0H15.9v-2.25h2.695v2.25zm5.4 0H21.28v-2.25h2.695v2.25z" mask="url(#D)" fill="url(#C)"/></g></svg>