<svg xmlns="http://www.w3.org/2000/svg" width="20" height="19"><path d="M19.285 1.674V16.66c0 .925-.954 1.674-2.13 1.674H2.13C.954 18.333 0 17.584 0 16.66V1.674C0 .75.954 0 2.13 0h15.024c1.177 0 2.13.75 2.13 1.674zM7.192 3.303a.534.534 0 0 0-.533-.533H3.463a.534.534 0 0 0-.533.533V6.5c0 .293.24.533.533.533H6.66c.293 0 .533-.24.533-.533V3.303zm-3.197.533h2.13v2.13h-2.13v-2.13zm4.475.532h4.156c.293 0 .532-.24.532-.532a.534.534 0 0 0-.532-.533H8.47a.534.534 0 0 0-.532.533c0 .293.24.532.532.532zm7.352 1.066H8.47a.534.534 0 0 0-.532.533c0 .293.24.532.532.532h7.352c.293 0 .533-.24.533-.532a.534.534 0 0 0-.533-.533zm-12.68 5.654H9.43c.293 0 .533-.24.533-.532a.534.534 0 0 0-.533-.533H3.143a.534.534 0 0 0-.533.533c0 .293.24.532.533.532zm12.68 1.066H3.143a.534.534 0 0 0-.533.532c0 .293.24.533.533.533h12.68c.293 0 .533-.24.533-.533a.534.534 0 0 0-.533-.532zm0 2.13H3.143a.534.534 0 0 0-.533.533c0 .293.24.533.533.533h12.68c.293 0 .533-.24.533-.533a.534.534 0 0 0-.533-.532z" fill="#14809F" fill-rule="evenodd"/></svg>