<svg xmlns="http://www.w3.org/2000/svg" width="17" height="20"><path d="M13.65 0a2.5 2.5 0 0 1 2.5 2.5v9.65a2.5 2.5 0 0 1-2.5 2.5H2.5a2.5 2.5 0 0 1-2.5-2.5V2.5A2.5 2.5 0 0 1 2.5 0h11.15zm-.825 2.5h-9.5a.75.75 0 0 0-.75.75v3.275a.725.725 0 0 0 .75.75h9.5a.725.725 0 0 0 .75-.75V3.25a.75.75 0 0 0-.75-.75zm-.75 3.275h-8V4h8v1.775zM14.4 16.4a.775.775 0 0 1-.75.75H2.5a.775.775 0 0 1-.75-.75.75.75 0 0 1 .75-.75h11.15a.75.75 0 0 1 .75.75zM5 18.15h6.15a.75.75 0 0 1 .75.75.775.775 0 0 1-.75.75H5a.775.775 0 0 1-.75-.75.75.75 0 0 1 .75-.75zm7.825-9.875h-9.5a.75.75 0 0 0 0 1.5h9.5a.75.75 0 1 0 0-1.5zm0 2.5h-9.5a.75.75 0 1 0 0 1.5h9.5a.75.75 0 1 0 0-1.5z" fill="#14809F" fill-rule="evenodd"/></svg>