<svg xmlns="http://www.w3.org/2000/svg" xmlns:xlink="http://www.w3.org/1999/xlink" width="35" height="35"><defs><linearGradient id="A" x1="50%" y1="0%" y2="50%"><stop offset="0%" stop-color="#000046"/><stop offset="100%" stop-color="#1CB5E0"/></linearGradient><circle id="B" cx="17.5" cy="17.5" r="17.5"/><linearGradient id="C" x1="0%" y1="50%" y2="106.671%"><stop offset="0%" stop-color="#000046"/><stop offset="100%" stop-color="#1CB5E0"/></linearGradient></defs><g fill="none"><mask id="D" fill="#fff"><use xlink:href="#B"/></mask><circle cx="17.5" cy="17.5" r="17" stroke="url(#A)"/><path d="M13.793 15.24V11.5a2.5 2.5 0 0 1 5 0v3.74c1.2-.8 2-2.18 2-3.74 0-2.5-2-4.5-4.5-4.5s-4.5 2-4.5 4.5c0 1.56.8 2.93 2 3.74zm5.5 2.47c-.28-.14-.58-.2-.9-.2h-.6v-6a1.5 1.5 0 1 0-3 0v10.74l-3.44-.72c-.37-.08-.76.04-1.03.3a1.13 1.13 0 0 0 0 1.58l4 4a2.04 2.04 0 0 0 1.42.58h6.1c1 0 1.84-.73 1.98-1.72l.63-4.47a2 2 0 0 0-1.09-2.07l-4.08-2.03z" mask="url(#D)" fill="url(#C)"/></g></svg>