<svg xmlns="http://www.w3.org/2000/svg" width="20" height="19"><path d="M15.882 4.706a3.54 3.54 0 0 1 3.53 3.53v7.058a3.54 3.54 0 0 1-3.53 3.53H4.118a3.54 3.54 0 0 1-3.53-3.53v-7.06a3.54 3.54 0 0 1 3.53-3.53h4.588L5.47 1c-.236-.235-.177-.588.058-.824s.59-.176.824.06L10 4.41 13.647.235c.235-.235.588-.294.824-.06s.294.59.058.824l-3.235 3.706h4.588zM16.47 10a1.176 1.176 0 1 0 0-2.353 1.176 1.176 0 0 0 0 2.353zm-4.118-2.94h-7.06a2.36 2.36 0 0 0-2.353 2.353v4.706a2.36 2.36 0 0 0 2.353 2.353h7.06a2.36 2.36 0 0 0 2.353-2.353V9.412a2.36 2.36 0 0 0-2.353-2.353zm4.706 3.53h-1.177c-.353 0-.588.235-.588.587s.235.59.588.59h1.177c.353 0 .588-.236.588-.59s-.235-.588-.588-.588zm0 1.764h-1.177c-.353 0-.588.235-.588.588s.235.588.588.588h1.177c.353 0 .588-.235.588-.588s-.235-.588-.588-.588zm0 1.765h-1.177c-.353 0-.588.235-.588.588s.235.588.588.588h1.177c.353 0 .588-.235.588-.588s-.235-.588-.588-.588z" fill="#14809F" fill-rule="evenodd"/></svg>